<?xml version="1.0" encoding="utf-8"?>
<!-- Generator: Adobe Illustrator 26.5.0, SVG Export Plug-In . SVG Version: 6.00 Build 0)  -->
<svg version="1.1" id="Layer_1" xmlns="http://www.w3.org/2000/svg" xmlns:xlink="http://www.w3.org/1999/xlink" x="0px" y="0px"
	 viewBox="0 0 1303.4 720" style="enable-background:new 0 0 1303.4 720;" xml:space="preserve">
<style type="text/css">
	.st0{fill:#00A9AC;}
	.st1{fill:#FA9D1E;}
	.st2{fill:#FFFFFF;}
	.st3{fill:none;}
</style>
<g id="Artwork">
	<g>
		<g>
			<circle class="st0" cx="361.7" cy="360" r="360"/>
			<g>
				<g>
					<circle class="st1" cx="361.7" cy="360" r="260.2"/>
					<g>
						<path class="st2" d="M361.7,85.5C210.1,85.5,87.2,208.4,87.2,360s122.9,274.5,274.5,274.5S636.1,511.6,636.1,360
							S513.2,85.5,361.7,85.5z M361.7,609.5c-137.8,0-249.5-111.7-249.5-249.5s111.7-249.5,249.5-249.5S611.2,222.2,611.2,360
							S499.5,609.5,361.7,609.5z"/>
					</g>
				</g>
				<g>
					<path d="M361.7,213.9c-41.3,0-81.6,4.4-120.5,12.6l2.8,27c38.4-5.7,77.7-8.7,117.6-8.7s79.2,3,117.6,8.7l2.8-27
						C443.3,218.2,403,213.9,361.7,213.9z"/>
					<path d="M361.7,332.7c-18.7,0-37.4,0.5-56.2,1.4c-8.2-10.9-18.1-20.4-29.2-28.1c28.2-2,56.7-3,85.5-3
						c56.9,0,112.8,4,167.5,11.7l3.1-29.3c-55.1-11-112.1-16.9-170.6-16.9s-115.5,5.8-170.6,16.9l3.1,29.3
						c13.7-1.9,27.4-3.6,41.2-5.1c2.5-0.3,4.4,0.4,5.5,0.9c12.9,5.7,24,14.5,32.5,25.6c-35.1,2.7-69.9,7-103.8,12.8l3.2,30.4
						c27.2-2.4,60.4-4.9,67.5-5c39.8-0.8,72.9,26.6,82.5,65.3c6.6,27.7,3.1,63.5,2.2,80.9h36.8h36.8c-0.9-17.3-4.4-53.1,2.2-80.9
						c9.5-38.8,42.6-66.1,82.5-65.3c7,0.1,40.3,2.6,67.5,5l3.2-30.4C491.5,338.2,425.9,332.7,361.7,332.7z M397.1,371
						c-15.6,18.4-27.9,40.2-35.4,63.9c-7.5-23.7-19.8-45.4-35.4-63.9l0,0c-0.1-0.1-0.2-0.2-0.3-0.3h35.6h35.6
						C397.2,370.8,397.1,370.9,397.1,371L397.1,371z"/>
				</g>
			</g>
		</g>
		<g>
			<path class="st0" d="M913.8,339c3.6,0,5.5,2.2,6,5.3c0.5,3.6,0.7,6.7,0.7,11.1s-0.2,7.5-0.7,11.1c-0.5,3.1-2.4,5.3-6,5.3h-80
				c-2.9,0-4.8,1.9-4.8,4.6V443c0,3.8-2.4,5.8-5.8,6.2c-3.8,0.5-7.2,0.7-12,0.7c-4.6,0-7.9-0.2-11.8-0.7c-3.4-0.5-5.8-2.4-5.8-6.2
				V296.9c0-15.6,6.5-26.2,26.7-26.2h104.1c3.6,0,5.5,2.2,6,5.3c0.5,3.6,0.7,6.7,0.7,11.1c0,4.3-0.2,7.5-0.7,11.1
				c-0.5,3.1-2.4,5.3-6,5.3h-90.6c-2.9,0-4.8,1.9-4.8,4.6v26.4c0,2.6,1.9,4.6,4.8,4.6L913.8,339L913.8,339z"/>
			<path class="st0" d="M1118.3,277v162.9c0,5.5-3.4,8.2-8.2,8.9c-5.6,0.8-10.3,1.2-17.1,1.2c-7,0-12.3-0.5-15.6-1
				c-5.3-0.7-9-3.1-11.9-7.9l-78.7-133.7V443c0,3.8-2.4,5.8-5.8,6.2c-3.6,0.5-7.5,0.7-12.3,0.7c-4.6,0-7.9-0.2-11.5-0.7
				c-3.4-0.5-5.8-2.4-5.8-6.2V280.8c0-6,3.8-8.9,8.9-9.6c6-0.7,11.3-1.2,18.5-1.2c7.7,0,13.5,0.5,17.1,1c5.8,1,9.1,3.1,12.3,8.4
				l74,125.4h0.7V277c0-3.8,2.4-5.8,5.8-6.2c3.6-0.5,7.5-0.7,12.3-0.7c4.6,0,7.9,0.2,11.5,0.7C1115.9,271.2,1118.3,273.1,1118.3,277
				z"/>
			<path class="st0" d="M1303.4,397.3c0,33.9-20.7,52.7-58.8,52.7h-72.2c-20.5,0-27.1-10.7-27.1-26.6V296.6
				c0-15.9,6.6-26.6,27.1-26.6h69.8c31.7,0,53.9,18.5,53.9,48c0,18.3-6.6,30.2-18.5,37.1C1291.9,360.5,1303.4,373.4,1303.4,397.3z
				 M1180.7,338c0,2.7,2,4.6,4.9,4.6h52.7c15.1,0,23.4-6.3,23.4-20.5c0-14.9-8.3-19.5-23.4-19.5h-52.7c-2.9,0-4.9,2-4.9,4.6V338z
				 M1268.1,394.9c-0.2-15.9-8.5-22-24.6-22h-57.9c-2.9,0-4.9,2-4.9,4.6v35.1c0,2.7,2,4.6,4.9,4.6h57.9
				C1259.5,417.3,1268.3,411.7,1268.1,394.9z"/>
		</g>
	</g>
</g>
<g id="Guides">
	<g>
		<rect x="1.7" class="st3" width="1301.7" height="720"/>
	</g>
</g>
</svg>
